# xmcd CD database file
#
# Track frame offsets:
#	150
#	12146
#	26970
#	40367
#	55256
#	70021
#	84956
#	98306
#	111326
#	126966
#	141105
#	156446
#	169680
#	184866
#	200073
#	214783
#	230181
#	244387
#	260795
#	273936
#	288155
#	300062
#	312208
#
# Disc length: 4344 seconds
#
# Revision: 0
# Processed by: cddbd v1.5PL3 Copyright (c) Steve Scherf et al.
# Submitted via: CDex 1.51
#
DISCID=4a10f617
DTITLE=Duke Ellington - Passion Flower - best of RCA 1940-1942
DYEAR=2004
DGENRE=Jazz
TTITLE0=Ko-Ko
TTITLE1=Morning Glory
TTITLE2=Conga Brava
TTITLE3=Never No Lament
TTITLE4=In a Mellotone
TTITLE5=Five O'Clock Whistle
TTITLE6=Day Dream
TTITLE7=Lament for Javanette
TTITLE8=A Lull at Dawn
TTITLE9=Ready Eddy
TTITLE10=Flamingo
TTITLE11=Take the A Train
TTITLE12=Blue Serge
TTITLE13=After All
TTITLE14=Solitude
TTITLE15=Bakiff
TTITLE16=Passion Flower
TTITLE17=Things Ain't What They Used to Be
TTITLE18=Chelsea Bridge
TTITLE19=Perdido
TTITLE20=The C Jam Blues
TTITLE21=Johnnny Come Lately
TTITLE22=Sentimental Lady
EXTD=YEAR: 2004
EXTT0=
EXTT1=
EXTT2=
EXTT3=
EXTT4=
EXTT5=
EXTT6=
EXTT7=
EXTT8=
EXTT9=
EXTT10=
EXTT11=
EXTT12=
EXTT13=
EXTT14=
EXTT15=
EXTT16=
EXTT17=
EXTT18=
EXTT19=
EXTT20=
EXTT21=
EXTT22=
PLAYORDER=
